<svg width="61" height="70" viewBox="0 0 61 70" xmlns="http://www.w3.org/2000/svg" xmlns:xlink="http://www.w3.org/1999/xlink"><title>Group 4</title><desc>Created using Figma</desc><use xlink:href="#a" transform="translate(10 17)"/><use xlink:href="#b" transform="translate(17 2)"/><use xlink:href="#c" transform="translate(3 11)"/><use xlink:href="#d" transform="translate(3 26)"/><use xlink:href="#d" transform="translate(33 16)"/><use xlink:href="#e" transform="translate(29 5)"/><defs><path id="a" fill-rule="evenodd" d="M44.685 13.521l5.996 21.852c.47 1.633.507 4.48-.488 7.125-1.271 3.421-3.848 5.813-7.446 6.913l-11.44 3.248a8.906 8.906 0 0 1-2.398.341 7.142 7.142 0 0 1-2.85-.567c-.824-.357-1.617-.866-2.425-1.557l-.142-.13-2.157-2.15a1.328 1.328 0 0 1-.072-.078C16.706 43.126 3.216 35.87 2.643 35.564a5.168 5.168 0 0 1-2.45-3.136 5.183 5.183 0 0 1 .46-3.918 5.068 5.068 0 0 1 4.414-2.616l.251.007a4.885 4.885 0 0 1 1.746.412c.074.028.247.104.502.246l6.186 3.374L7.33 6.53a5.175 5.175 0 0 1 .465-3.915A5.056 5.056 0 0 1 10.852.183 5.113 5.113 0 0 1 14.185.4a5.13 5.13 0 0 1 2.902 3.354l2.058 7.495a5.027 5.027 0 0 1 2.583-1.742 5.096 5.096 0 0 1 3.35.224 5.053 5.053 0 0 1 2.357 2.082 5.025 5.025 0 0 1 2.707-1.894 5.107 5.107 0 0 1 3.34.219 5.095 5.095 0 0 1 2.184 1.803 5.036 5.036 0 0 1 2.775-1.992 5.081 5.081 0 0 1 3.352.226 5.105 5.105 0 0 1 2.892 3.346zm-2.63 33.465c2.809-.859 4.828-2.722 5.819-5.384.837-2.23.71-4.531.422-5.532l-6-21.867a2.61 2.61 0 0 0-1.48-1.707 2.62 2.62 0 0 0-1.704-.115 2.58 2.58 0 0 0-1.556 1.241 2.646 2.646 0 0 0-.242 1.999l1.504 5.476.013.048.011.058c.072.382-.027.785-.27 1.108a1.504 1.504 0 0 1-1.087.59 1.216 1.216 0 0 1-.595-.106 1.444 1.444 0 0 1-.788-.94l-2.107-7.681a2.62 2.62 0 0 0-1.483-1.714 2.568 2.568 0 0 0-.931-.2 2.498 2.498 0 0 0-.767.09c-1.376.389-2.18 1.84-1.8 3.238l2.099 7.831a1.268 1.268 0 0 1-.728 1.5l-.2.083c-.315.13-.666.125-.976-.016a2.22 2.22 0 0 1-.144-.074 1.257 1.257 0 0 1-.632-.785l-2.85-10.363a2.6 2.6 0 0 0-1.478-1.712 2.64 2.64 0 0 0-1.71-.113c-1.365.39-2.17 1.844-1.792 3.242l2.823 10.27c.057.207.06.425.012.633l-.048.202c-.092.39-.36.713-.726.87l-.159.067a1.205 1.205 0 0 1-1.02-.027c-.29-.142-.67-.445-.83-1.077L14.696 4.437a2.62 2.62 0 0 0-1.48-1.713 2.648 2.648 0 0 0-1.696-.11c-.671.19-1.226.63-1.565 1.24a2.634 2.634 0 0 0-.237 1.992l7.097 25.864c.013.043.021.087.03.13a1.57 1.57 0 0 1-.362 1.241c-.107.12-.235.216-.377.287a1.688 1.688 0 0 1-.662.154 1.244 1.244 0 0 1-.637-.15l-8.424-4.596a2.505 2.505 0 0 0-.28-.138 2.505 2.505 0 0 0-.887-.215l-.184-.005c-.897 0-1.762.512-2.22 1.334a2.637 2.637 0 0 0-.232 1.992 2.642 2.642 0 0 0 1.236 1.597c1.456.778 14.485 7.842 19.292 13.49l2.156 2.143c.3.256.6.48.901.673.287.183.574.337.863.462a4.708 4.708 0 0 0 1.88.367 6.44 6.44 0 0 0 1.729-.248l11.418-3.242z"/><path id="b" d="M.536 9.325L.86 10.79l2.929-.651-.326-1.464-2.928.65zm.928-9.65L1.14-1.79l-2.929.651.326 1.464 2.928-.65zm2 9l-2-9-2.928.65 2 9 2.928-.65z"/><path id="c" d="M8.272 6.311l1.31.729 1.458-2.623-1.312-.728L8.272 6.31zM.728-1.31l-1.31-.729L-2.04.583l1.312.728L.728-1.31zm9 5l-9-5-1.456 2.62 9 5 1.456-2.62z"/><path id="d" d="M9.474 1.423l1.423-.474-.948-2.846-1.423.474.948 2.846zm-9.948.154l-1.423.474.948 2.846 1.423-.474-.948-2.846zm9-3l-9 3 .948 2.846 9-3-.948-2.846z"/><path id="e" d="M-1.2 7.1l-.9 1.2 2.4 1.8.9-1.2-2.4-1.8zM7.2.9l.9-1.2-2.4-1.8-.9 1.2L7.2.9zm-6 8l6-8L4.8-.9l-6 8 2.4 1.8z"/></defs></svg>