<svg width="69" height="67" viewBox="0 0 69 67" xmlns="http://www.w3.org/2000/svg" xmlns:xlink="http://www.w3.org/1999/xlink"><title>noun_347508_cc</title><desc>Created using Figma</desc><g transform="translate(-3320 -5139)"><use xlink:href="#a" transform="translate(3320.67 5139.22)"/><mask id="b"><use xlink:href="#a" fill="#fff" transform="translate(3320.67 5139.22)"/></mask><g mask="url(#b)"><use xlink:href="#c" transform="translate(3320.67 5139.22)" fill="#FFF"/></g></g><g transform="translate(-3320 -5139)"><use xlink:href="#d" transform="translate(3343.69 5161.71)"/><mask id="e"><use xlink:href="#d" fill="#fff" transform="translate(3343.69 5161.71)"/></mask><g mask="url(#e)"><use xlink:href="#f" transform="translate(3343.69 5161.71)" fill="#FFF"/></g></g><g transform="translate(-3320 -5139)"><use xlink:href="#g" transform="translate(3341.57 5159.59)"/><mask id="h"><use xlink:href="#g" fill="#fff" transform="translate(3341.57 5159.59)"/></mask><g mask="url(#h)"><use xlink:href="#i" transform="translate(3341.57 5159.59)" fill="#FFF"/></g></g><g transform="translate(-3320 -5139)"><use xlink:href="#j" transform="translate(3354.94 5172.94)"/><mask id="k"><use xlink:href="#j" fill="#fff" transform="translate(3354.94 5172.94)"/></mask><g mask="url(#k)"><use xlink:href="#l" transform="translate(3354.94 5172.94)" fill="#FFF"/></g></g><defs><path id="a" fill-rule="evenodd" d="M57.69 20.513l9.201 6.61a1.86 1.86 0 0 1 .453 2.558l-6.383 9.351 2.793 10.965a1.86 1.86 0 0 1-1.302 2.25l-10.912 3.07-4.923 10.19a1.865 1.865 0 0 1-2.447.889l-10.336-4.649-10.335 4.649a1.864 1.864 0 0 1-2.447-.889l-4.923-10.19-10.914-3.07a1.86 1.86 0 0 1-1.302-2.25l2.794-10.965-6.383-9.35a1.86 1.86 0 0 1 .451-2.56l9.203-6.609 1.133-11.26a1.86 1.86 0 0 1 1.995-1.668l11.307.841 8.12-7.898a1.87 1.87 0 0 1 2.602 0l8.12 7.898 11.306-.841a1.86 1.86 0 0 1 1.994 1.668l1.134 11.26zm-.552 18.624a1.859 1.859 0 0 1 .267-1.507l5.833-8.546-8.41-6.041a1.855 1.855 0 0 1-.765-1.323l-1.036-10.29-10.332.771a1.872 1.872 0 0 1-1.44-.523l-7.421-7.217-7.42 7.217a1.867 1.867 0 0 1-1.44.523l-10.333-.77-1.036 10.289a1.854 1.854 0 0 1-.766 1.323l-8.41 6.041 5.834 8.546c.301.44.398.989.267 1.507l-2.553 10.02 9.973 2.805c.514.146.942.503 1.174.984l4.499 9.313 9.444-4.247a1.85 1.85 0 0 1 1.533 0l9.446 4.247 4.499-9.313c.232-.48.66-.839 1.174-.984l9.972-2.805-2.553-10.02z"/><path id="c" d="M66.891 27.122l-.291.406.291-.406zm-9.202-6.609l-.497.05.022.225.184.131.291-.406zm9.655 9.168l.413.282-.413-.282zm-6.383 9.351l-.413-.282-.127.187.056.219.484-.124zm2.793 10.965l.484-.123-.484.123zm-1.302 2.25l-.135-.481.135.481zm-10.912 3.07l-.136-.481-.216.06-.098.203.45.218zm-4.923 10.19l.45.218-.45-.218zm-2.447.889l.206-.456h-.001l-.205.456zm-10.336-4.649l.205-.456-.205-.092-.205.092.205.456zm-10.335 4.649l-.205-.456.205.456zm-2.447-.889l.45-.217-.45.217zm-4.923-10.19l.45-.218-.098-.202-.217-.061-.135.48zm-10.914-3.07l.135-.481-.135.481zm-1.302-2.25l-.484-.123.484.123zm2.794-10.965l.484.124.056-.22-.127-.186-.413.282zm-6.383-9.35l.413-.283-.413.282zm.451-2.56l.292.406-.292-.406zm9.203-6.609l.291.406.183-.131.023-.225-.497-.05zm1.133-11.26l.498.05-.498-.05zm1.995-1.668l-.038.498.038-.498zm11.307.841l-.038.499.225.017.161-.157-.348-.359zm8.12-7.898l-.35-.359.35.359zm2.602 0l.35-.359-.35.359zm8.12 7.898l-.349.359.162.157.224-.017-.037-.499zm11.306-.841l.037.499h.001l-.038-.499zm1.994 1.668l-.497.05.497-.05zm.85 28.377l.413.282-.413-.282zm-.267 1.507l-.484.123.484-.123zm6.1-10.053l.413.282.275-.403-.396-.285-.292.406zm-8.41-6.041l.292-.406-.291.406zm-.765-1.323l.497-.05-.497.05zm-1.036-10.29l.498-.05-.05-.484-.485.036.037.499zm-10.332.771l-.037-.498.037.498zm-.758-.1l-.166.472.166-.471zm-.683-.423l.35-.358h-.001l-.349.358zm-7.42-7.217l.349-.358-.349-.34-.349.34.349.358zm-7.42 7.217l.349.359-.348-.359zm-1.44.523l.037-.498-.037.498zm-10.333-.77l.037-.499-.486-.036-.049.485.498.05zM13.605 21.72l-.498-.05.498.05zm-.766 1.323l-.29-.406h-.001l.291.406zm-8.41 6.041l-.291-.406-.396.285.275.403.413-.282zm5.834 8.546l-.413.282.413-.282zm.267 1.507l.484.124-.484-.124zm-2.553 10.02l-.485-.123-.12.473.47.132.135-.482zm9.973 2.805l.137-.48-.002-.001-.135.48zm1.174.984l.45-.218-.45.218zm4.499 9.313l-.45.217.211.438.444-.2-.205-.455zm9.444-4.247l.205.456.003-.001-.208-.455zm1.533 0l-.207.455h.002l.205-.455zm9.446 4.247l-.205.456.444.2.211-.439-.45-.217zm4.499-9.313l-.45-.218.45.218zm1.174-.984l-.136-.481.136.48zm9.972-2.805l.136.482.47-.133-.121-.472-.485.123zm7.492-22.441l-9.202-6.609-.584.812 9.203 6.61.583-.813zm.574 3.247a2.36 2.36 0 0 0-.574-3.247l-.583.812c.6.43.747 1.26.33 1.872l.827.563zm-6.383 9.351l6.383-9.351-.827-.564-6.382 9.351.826.564zm2.864 10.56l-2.792-10.965-.97.247L63.27 50.12l.97-.247zm-1.65 2.854a2.36 2.36 0 0 0 1.65-2.854l-.969.246a1.36 1.36 0 0 1-.952 1.646l.27.962zm-10.913 3.07l10.913-3.07-.271-.962-10.913 3.07.271.962zm-4.608 9.927l4.923-10.19-.9-.436-4.924 10.19.9.436zm-2.132 1.337c.88 0 1.724-.493 2.132-1.337l-.9-.435a1.365 1.365 0 0 1-1.232.771v1zm-.971-.21c.301.132.665.207.971.21v-1a1.167 1.167 0 0 1-.559-.121l-.412.91zm-10.335-4.649l10.336 4.649.41-.912-10.336-4.649-.41.912zm-9.925 4.649l10.335-4.649-.41-.912-10.335 4.649.41.912zm-3.102-1.128a2.364 2.364 0 0 0 3.102 1.128l-.41-.912a1.364 1.364 0 0 1-1.792-.65l-.9.434zm-4.923-10.19l4.923 10.19.9-.434L16.58 55.1l-.9.434zm-10.6-2.806l10.915 3.07.27-.962-10.914-3.07-.27.962zm-1.65-2.854a2.36 2.36 0 0 0 1.65 2.854l.27-.962a1.36 1.36 0 0 1-.951-1.646l-.97-.246zm2.793-10.965L3.429 49.874l.969.246L7.19 39.157l-.969-.247zm-6.31-8.946l6.382 9.351.826-.564L.737 29.4l-.826.563zm.572-3.247a2.359 2.359 0 0 0-.573 3.247l.826-.564c-.416-.61-.27-1.44.33-1.87l-.583-.813zm9.202-6.609L.484 26.716l.583.812 9.202-6.609-.583-.812zm.928-10.904L9.48 20.463l.995.1 1.134-11.26-.995-.1zm2.53-2.117a2.359 2.359 0 0 0-2.53 2.117l.995.1a1.36 1.36 0 0 1 1.459-1.22l.076-.997zm11.306.842l-11.307-.842-.074.998 11.306.84.075-.996zM32.184.169l-8.12 7.899.697.717 8.12-7.899-.697-.717zm3.3 0a2.37 2.37 0 0 0-3.3 0l.697.717a1.37 1.37 0 0 1 1.906 0l.697-.717zm8.12 7.899L35.484.169l-.697.717 8.12 7.899.697-.717zm10.92-.982l-11.306.842.074.997 11.306-.841-.074-.998zm2.529 2.117a2.36 2.36 0 0 0-2.53-2.117l.076.997a1.36 1.36 0 0 1 1.459 1.22l.995-.1zm1.134 11.26l-1.134-11.26-.995.1 1.134 11.26.995-.1zm-1.195 16.885a2.359 2.359 0 0 0-.338 1.912l.969-.246a1.36 1.36 0 0 1 .195-1.102l-.826-.564zm5.833-8.545l-5.833 8.546.826.563 5.833-8.546-.826-.563zm-8.288-5.354l8.41 6.041.583-.812-8.41-6.041-.583.812zm-.971-1.68c.067.674.421 1.286.971 1.68l.583-.813a1.355 1.355 0 0 1-.56-.966l-.995.1zM52.53 11.482l1.035 10.289.995-.1-1.035-10.29-.995.1zM42.732 12.7l10.332-.77-.074-.998-10.332.77.074.998zm-.96-.127a2.6 2.6 0 0 0 .96.127l-.075-.997a1.187 1.187 0 0 1-.555-.073l-.33.943zm-.867-.537c.238.228.564.428.866.537l.331-.943a1.176 1.176 0 0 1-.499-.31l-.698.716zm-7.42-7.217l7.42 7.218.698-.717-7.42-7.217-.698.716zm-6.722 7.218l7.42-7.218-.698-.716-7.42 7.217.698.717zm-1.827.663c.676.05 1.341-.19 1.827-.663l-.697-.717a1.37 1.37 0 0 1-1.055.383l-.075.997zm-10.332-.77l10.333.77.074-.997-10.333-.771-.074.997zm-.502 9.84l1.036-10.29-.995-.1-1.036 10.29.995.1zm-.972 1.68a2.354 2.354 0 0 0 .972-1.68l-.995-.1c-.038.388-.242.74-.559.966l.582.814zm-8.409 6.04l8.41-6.041-.583-.812-8.41 6.041.583.813zm5.955 7.859l-5.833-8.546-.826.563 5.833 8.546.826-.563zm.338 1.911a2.357 2.357 0 0 0-.338-1.912l-.826.565c.22.321.291.721.195 1.101l.97.246zM8.461 49.28l2.553-10.02-.969-.246-2.553 10.02.97.247zm9.624 2.2l-9.973-2.804-.27.963 9.973 2.804.27-.962zm1.489 1.248a2.372 2.372 0 0 0-1.487-1.247l-.274.962c.378.108.691.37.86.72l.901-.435zm4.499 9.313l-4.499-9.313-.9.435 4.499 9.313.9-.435zm8.79-4.485l-9.445 4.247.41.912 9.444-4.247-.41-.912zm.971-.21a2.61 2.61 0 0 0-.974.21l.415.91c.191-.09.35-.123.559-.12v-1zm.974.21a2.585 2.585 0 0 0-.974-.21v1c.21-.002.367.03.56.12l.414-.91zm9.443 4.247l-9.446-4.247-.41.912 9.446 4.247.41-.912zm3.844-9.075l-4.5 9.313.901.435 4.5-9.313-.901-.435zm1.488-1.247a2.367 2.367 0 0 0-1.488 1.247l.9.435c.17-.351.482-.613.86-.72l-.272-.962zm9.973-2.805l-9.973 2.805.271.962 9.973-2.804-.271-.963zm-2.902-9.415l2.553 10.02.969-.247-2.553-10.02-.97.247z"/><path id="d" d="M21.073.545a1.867 1.867 0 0 0-2.637 0L.546 18.401a1.858 1.858 0 0 0 0 2.631 1.86 1.86 0 0 0 1.319.546c.477 0 .954-.182 1.318-.546l17.89-17.855a1.857 1.857 0 0 0 0-2.632z"/><path id="f" d="M21.073.545L20.719.9l.354-.354zm-2.637 0l.353.354-.353-.354zM.546 18.401l.353.354-.353-.354zm0 2.631l-.353.354.353-.354zm2.637 0l-.353-.354.353.354zm17.89-17.855l-.353-.354.353.354zM21.426.19a2.367 2.367 0 0 0-3.344 0l.708.71a1.367 1.367 0 0 1 1.93 0l.707-.708zm-3.343 0L.193 18.047l.706.707L18.79.9l-.706-.708zM.193 18.047a2.358 2.358 0 0 0 0 3.34l.706-.709a1.358 1.358 0 0 1 0-1.924l-.706-.707zm0 3.34a2.36 2.36 0 0 0 1.672.69v-1a1.36 1.36 0 0 1-.966-.399l-.706.708zm1.672.69c.604 0 1.21-.23 1.672-.691l-.708-.707a1.358 1.358 0 0 1-.964.399v1zm1.671-.69L21.426 3.53l-.706-.708L2.83 20.678l.706.708zM21.426 3.53a2.356 2.356 0 0 0 0-3.34l-.706.708a1.356 1.356 0 0 1 0 1.924l.706.708z"/><path id="g" fill-rule="evenodd" d="M10.664 1.827a6.234 6.234 0 0 1 0 8.819 6.21 6.21 0 0 1-4.418 1.825A6.237 6.237 0 1 1 6.245 0c1.67 0 3.239.647 4.42 1.827zM4.465 4.459a2.512 2.512 0 0 0 0 3.555c.95.949 2.61.949 3.563 0a2.514 2.514 0 0 0-1.782-4.29c-.673 0-1.305.259-1.78.735z"/><path id="i" d="M10.664 10.646l-.353-.354.353.354zm0-8.82l-.353.354.353-.353zm-8.837 8.82L1.474 11l.353-.354zm0-8.821l-.353-.354.353.354zm2.638 6.19l.353-.355-.353.354zm0-3.556l.353.354-.353-.354zm3.563 3.555l.353.354-.353-.354zm0-3.555l-.354.354.354-.354zm2.99 6.54a6.734 6.734 0 0 0 0-9.526l-.707.707a5.734 5.734 0 0 1 0 8.112l.706.707zm-4.772 1.972A6.71 6.71 0 0 0 11.017 11l-.706-.707a5.71 5.71 0 0 1-4.065 1.68v1zm-4.772-1.97a6.72 6.72 0 0 0 4.772 1.97v-1a5.72 5.72 0 0 1-4.066-1.679l-.706.709zm0-9.53a6.737 6.737 0 0 0 0 9.53l.707-.708a5.737 5.737 0 0 1 0-8.114l-.707-.708zM6.245-.5c-1.8 0-3.496.7-4.77 1.97l.706.709A5.712 5.712 0 0 1 6.245.5v-1zm4.772 1.973A6.708 6.708 0 0 0 6.245-.5v1c1.537 0 2.98.595 4.066 1.68l.707-.707zM4.819 7.66a2.012 2.012 0 0 1 0-2.847l-.706-.708a3.012 3.012 0 0 0 0 4.263l.706-.708zm2.857 0c-.757.754-2.102.754-2.857 0l-.706.708c1.145 1.144 3.122 1.143 4.269 0l-.706-.708zm0-2.847a2.014 2.014 0 0 1 0 2.847l.706.708a3.014 3.014 0 0 0 0-4.263l-.706.708zm-1.429-.59c.542 0 1.047.208 1.428.59l.707-.708a3.001 3.001 0 0 0-2.135-.882v1zm-1.427.59c.38-.382.885-.59 1.427-.59v-1a3 3 0 0 0-2.135.883l.708.706z"/><path id="j" fill-rule="evenodd" d="M1.83 1.827A6.21 6.21 0 0 1 6.248 0a6.236 6.236 0 1 1 .001 12.473 6.22 6.22 0 0 1-4.419-1.827A6.188 6.188 0 0 1 0 6.236a6.19 6.19 0 0 1 1.83-4.41zm2.637 6.186c.952.952 2.612.952 3.563.002a2.513 2.513 0 0 0-1.783-4.293c-.672 0-1.304.262-1.78.736a2.496 2.496 0 0 0-.738 1.778c0 .671.262 1.303.738 1.777z"/><path id="l" d="M1.83 1.827l.354.354-.354-.354zm8.837-.001l.353-.354-.353.354zm.001 8.82l-.353-.353.353.354zM8.03 8.015l-.353-.354.353.354zm-3.563-.002l.354-.353v-.001l-.354.354zM8.03 4.458l.353-.354-.353.354zm-3.562 0l-.353-.354.353.354zM6.248-.5a6.71 6.71 0 0 0-4.771 1.973l.707.707A5.71 5.71 0 0 1 6.248.5v-1zm4.772 1.972A6.715 6.715 0 0 0 6.248-.5v1c1.538 0 2.98.596 4.066 1.68l.706-.708zM11.021 11a6.736 6.736 0 0 0 0-9.528l-.707.708a5.736 5.736 0 0 1 0 8.113l.707.707zM6.25 12.973c1.801 0 3.499-.7 4.772-1.973l-.706-.707a5.712 5.712 0 0 1-4.066 1.68v1zM1.477 11a6.718 6.718 0 0 0 4.772 1.973v-1a5.718 5.718 0 0 1-4.066-1.68L1.477 11zM-.5 6.237c0 1.8.703 3.493 1.977 4.765l.706-.708A5.689 5.689 0 0 1 .5 6.236h-1zm1.977-4.763A6.69 6.69 0 0 0-.5 6.236h1A5.69 5.69 0 0 1 2.184 2.18l-.707-.708zm6.2 6.188c-.756.755-2.1.755-2.856-.001l-.707.707c1.147 1.147 3.123 1.147 4.27.001l-.707-.707zm-.001-2.849a2.013 2.013 0 0 1 0 2.849l.707.707a3.013 3.013 0 0 0 0-4.264l-.707.708zm-1.429-.59c.541 0 1.047.21 1.43.59l.705-.708a3.01 3.01 0 0 0-2.135-.882v1zm-1.427.59c.382-.38.887-.59 1.427-.59v-1c-.805 0-1.564.314-2.133.882l.706.708zm-.59 1.423c0-.538.208-1.041.592-1.424l-.707-.708a2.996 2.996 0 0 0-.885 2.132h1zm.591 1.423a1.992 1.992 0 0 1-.591-1.423h-1c0 .804.315 1.563.885 2.131l.706-.708z"/></defs></svg>