<svg width="11" height="11" viewBox="0 0 11 11" xmlns="http://www.w3.org/2000/svg" xmlns:xlink="http://www.w3.org/1999/xlink"><title>Facebook</title><desc>Created using Figma</desc><g transform="translate(-3575 714)"><path fill="#FFF" d="M3575-714h11v11h-11z"/><clipPath id="a" clip-rule="evenodd"><path d="M2888-1571h1024v983H2888v-983z" fill="#FFF"/></clipPath><g clip-path="url(#a)"><use xlink:href="#b" transform="translate(2888 -1625)" fill="#F1F2F7"/><use xlink:href="#c" transform="translate(3575 -714)" fill="#303030" opacity=".7"/></g></g><defs><path id="b" fill-rule="evenodd" d="M0 0h1024v1471H0V0z"/><path id="c" fill-rule="evenodd" d="M11 10.393a.607.607 0 0 1-.607.607H7.59V6.74h1.43l.214-1.66H7.59V4.02c0-.48.133-.808.823-.808h.879V1.727A11.7 11.7 0 0 0 8.01 1.66c-1.268 0-2.135.774-2.135 2.195V5.08H4.442v1.66h1.434V11H.607A.607.607 0 0 1 0 10.393V.607C0 .272.272 0 .607 0h9.786c.335 0 .607.272.607.607v9.786z"/></defs></svg>