<svg width="50" height="63" viewBox="0 0 50 63" xmlns="http://www.w3.org/2000/svg" xmlns:xlink="http://www.w3.org/1999/xlink"><title>Group 3</title><desc>Created using Figma</desc><g transform="translate(-3482 -5141)"><use xlink:href="#a" transform="translate(3486 5146)" fill="#FFF"/><mask id="b"><use xlink:href="#a" fill="#fff" transform="translate(3486 5146)"/></mask><g mask="url(#b)"><use xlink:href="#c" transform="translate(3486 5146)"/></g></g><use xlink:href="#d" transform="translate(3 2)" fill="#FFF"/><use xlink:href="#e"/><defs><path id="a" fill-rule="evenodd" d="M0 5a5 5 0 0 1 5-5h36a5 5 0 0 1 5 5v48a5 5 0 0 1-5 5H5a5 5 0 0 1-5-5V5z"/><path id="c" d="M5 2.5h36v-5H5v5zM43.5 5v48h5V5h-5zM41 55.5H5v5h36v-5zM2.5 53V5h-5v48h5zM5-2.5A7.5 7.5 0 0 0-2.5 5h5A2.5 2.5 0 0 1 5 2.5v-5zm36 5A2.5 2.5 0 0 1 43.5 5h5A7.5 7.5 0 0 0 41-2.5v5zM43.5 53a2.5 2.5 0 0 1-2.5 2.5v5a7.5 7.5 0 0 0 7.5-7.5h-5zM5 55.5A2.5 2.5 0 0 1 2.5 53h-5A7.5 7.5 0 0 0 5 60.5v-5z"/><path id="d" fill-rule="evenodd" d="M0 0h41v55H0V0z"/><path id="e" fill-rule="evenodd" d="M41.2 0H4.8C2.154 0 0 1.987 0 4.43v49.14C0 56.014 2.154 58 4.8 58h25.715c.099 0 .195-.01.289-.03.025-.005.048-.014.073-.02a1.525 1.525 0 0 0 .196-.062c.019-.008.036-.017.054-.026l.034-.018.046-.023c.038-.02.074-.04.109-.063.025-.017.049-.036.073-.055l.012-.01a1.543 1.543 0 0 0 .126-.112c.013-.013.026-.02.038-.034l14.113-15.501c.208-.228.322-.516.322-.814V4.429C46 1.987 43.846 0 41.2 0zM2.742 53.57V4.43c0-1.047.923-1.898 2.057-1.898h36.4c1.133 0 2.057.851 2.057 1.898v35.51H30.515a1.44 1.44 0 0 0-.863.282 1.23 1.23 0 0 0-.509.984V55.47H4.8c-1.134 0-2.057-.852-2.057-1.898zm29.143-.308l9.823-10.79h-9.823v10.79z"/></defs></svg>