<svg width="56" height="30" viewBox="0 0 56 30" xmlns="http://www.w3.org/2000/svg" xmlns:xlink="http://www.w3.org/1999/xlink"><title>Group 11</title><desc>Created using Figma</desc><use xlink:href="#a" transform="translate(13.9)"/><use xlink:href="#b" transform="translate(41.3 14.6)"/><use xlink:href="#c" transform="translate(2.5 19)" fill="#FF6000"/><use xlink:href="#d" transform="translate(1.3 13)" fill="#FF6000"/><use xlink:href="#e" transform="translate(0 7.1)" fill="#FF6000"/><defs><path id="a" fill-rule="evenodd" d="M4.926 26.395c.117 0 .235 0 .352-.061C5.57 28.411 7.272 30 9.324 30c2.053 0 3.753-1.589 4.046-3.605h16.42C30.084 28.411 31.784 30 33.837 30c2.052 0 3.753-1.589 4.046-3.605h3.225c.528 0 .997-.489.997-1.039V13.931c0-2.933-.762-5.316-2.287-7.027-1.407-1.588-3.401-2.444-5.57-2.444h-5.865V1.04c0-.55-.47-1.039-.997-1.039H.996C.47 0 0 .489 0 1.039v24.317c0 .55.47 1.04.997 1.04h3.929zm28.764 1.387c-1.173 0-2.11-.978-2.11-2.2 0-1.222.937-2.2 2.11-2.2 1.173 0 2.111.978 2.111 2.2 0 1.222-.938 2.2-2.11 2.2zM28.21 6.617h5.865c3.636 0 5.864 2.81 5.864 7.332v10.387h-2.404c-.586-1.65-2.111-2.872-3.87-2.872-1.818 0-3.343 1.222-3.87 2.872H28.27V6.617h-.06zM9.27 27.782c-1.174 0-2.112-.978-2.112-2.2 0-1.222.938-2.2 2.111-2.2 1.173 0 2.111.978 2.111 2.2-.058 1.222-.997 2.2-2.11 2.2zM2.104 2.206h24.337v22.179H13.717c-.118 0-.235 0-.352.061-.528-1.71-2.111-2.932-3.93-2.932-1.817 0-3.4 1.283-3.928 2.994a1.07 1.07 0 0 0-.47-.123H2.106V2.206z"/><path id="b" d="M.974 2.206h12.5V0H0v2.206h.974z"/><path id="c" fill-rule="evenodd" d="M0 1.1C0 .518.478 0 1.016 0h6.81c.538 0 1.016.518 1.016 1.1 0 .583-.478 1.1-1.016 1.1h-6.81C.478 2.265 0 1.747 0 1.1z"/><path id="d" fill-rule="evenodd" d="M.999 2.206C.47 2.206 0 1.686 0 1.103 0 .519.47 0 .999 0h8.107c.53 0 1 .519 1 1.103s-.47 1.103-1 1.103H1z"/><path id="e" fill-rule="evenodd" d="M.976 0h9.416c.517 0 .976.519.976 1.103s-.459 1.103-.976 1.103H.976C.46 2.206 0 1.686 0 1.103 0 .519.46 0 .976 0z"/></defs></svg>