<svg width="130" height="34" viewBox="0 0 130 34" xmlns="http://www.w3.org/2000/svg" xmlns:xlink="http://www.w3.org/1999/xlink"><title>Group 23</title><desc>Created using Figma</desc><use xlink:href="#a" transform="translate(16.6)"/><use xlink:href="#b" transform="translate(113.1 16.5)"/><use xlink:href="#c" transform="translate(2.5 20.5)" fill="#FF6000"/><use xlink:href="#d" transform="translate(1.3 13.7)" fill="#FF6000"/><use xlink:href="#e" transform="translate(0 7)" fill="#FF6000"/><use xlink:href="#f" transform="translate(76.1 24.4)"/><use xlink:href="#g" transform="translate(78.7 26.6)" fill="#FFF"/><use xlink:href="#f" transform="translate(45.4 24.4)"/><use xlink:href="#g" transform="translate(48 26.6)" fill="#FFF"/><use xlink:href="#f" transform="translate(33.9 24.4)"/><use xlink:href="#g" transform="translate(36.4 26.6)" fill="#FFF"/><use xlink:href="#f" transform="translate(22.3 24.4)"/><use xlink:href="#g" transform="translate(24.8 26.6)" fill="#FFF"/><defs><path id="a" fill-rule="evenodd" d="M58.034 29.915c.134 0 12.89 0 13.025-.07C71.396 32.2 73.35 34 75.707 34c2.358 0 4.312-1.8 4.649-4.085h18.863c.336 2.285 2.29 4.085 4.648 4.085 2.358 0 4.311-1.8 4.648-4.085h3.705c.607 0 1.146-.555 1.146-1.178V15.788c0-3.324-.876-6.024-2.628-7.963-1.617-1.8-3.907-2.77-6.4-2.77h-6.736V1.177c0-.623-.54-1.177-1.145-1.177H1.145L0 1.177v27.56c0 .623.539 1.178 1.145 1.178h56.889zm43.239-.922c0-1.385 1.078-2.493 2.426-2.493 1.347 0 2.425 1.108 2.425 2.493 0 1.385-1.078 2.493-2.425 2.493-1.348 0-2.426-1.108-2.426-2.493zM97.403 7.5h6.737c4.177 0 6.737 3.185 6.737 8.31v11.77h-2.762c-.674-1.87-2.426-3.254-4.447-3.254-2.088 0-3.84 1.385-4.446 3.254h-1.751V7.5h-.068zM73.22 28.993c0-1.385 1.078-2.493 2.425-2.493 1.347 0 2.425 1.108 2.425 2.493-.067 1.385-1.145 2.493-2.425 2.493-1.347 0-2.425-1.108-2.425-2.493zM95.372 2.5v25.137H80.754c-.135 0-.27 0-.404.069a4.75 4.75 0 0 0-4.514-3.324c-2.088 0-3.907 1.454-4.514 3.393a1.24 1.24 0 0 0-.538-.138H2.419V2.5h92.953z"/><path id="b" d="M1.12 2.5h14.358V0H0v2.5h1.12z"/><path id="c" fill-rule="evenodd" d="M1.167 0H8.99c.617 0 1.167.587 1.167 1.247 0 .66-.55 1.247-1.167 1.247H1.167C.549 2.567 0 1.98 0 1.247 0 .587.55 0 1.167 0z"/><path id="d" fill-rule="evenodd" d="M1.147 2.5C.54 2.5 0 1.912 0 1.25S.54 0 1.147 0h9.314c.608 0 1.148.588 1.148 1.25s-.54 1.25-1.148 1.25H1.147z"/><path id="e" fill-rule="evenodd" d="M1.121 0h10.817c.594 0 1.122.588 1.122 1.25s-.528 1.25-1.122 1.25H1.121C.528 2.5 0 1.912 0 1.25S.528 0 1.121 0z"/><path id="f" fill-rule="evenodd" d="M4.628 9.59c2.556 0 4.628-2.147 4.628-4.795S7.184 0 4.628 0 0 2.147 0 4.795 2.072 9.59 4.628 9.59z"/><path id="g" fill-rule="evenodd" d="M2.524 5.23c1.394 0 2.525-1.17 2.525-2.615C5.049 1.171 3.919 0 2.524 0 1.13 0 0 1.171 0 2.615 0 4.06 1.13 5.231 2.524 5.231z"/></defs></svg>