<svg width="80" height="34" viewBox="0 0 80 34" xmlns="http://www.w3.org/2000/svg" xmlns:xlink="http://www.w3.org/1999/xlink"><title>Group 22</title><desc>Created using Figma</desc><use xlink:href="#a" transform="translate(17.4)"/><use xlink:href="#b" transform="translate(63.1 16.5)"/><use xlink:href="#c" transform="translate(2.9 21.8)" fill="#FF6000"/><use xlink:href="#d" transform="translate(1.7 15)" fill="#FF6000"/><use xlink:href="#e" transform="translate(0 8.3)" fill="#FF6000"/><use xlink:href="#f" transform="translate(26.4 24.4)"/><use xlink:href="#g" transform="translate(28.9 26.6)" fill="#FFF"/><defs><path id="a" fill-rule="evenodd" d="M20.08 29.915c.134 0 .269 0 .403-.07C20.818 32.2 22.763 34 25.11 34c2.348 0 4.293-1.8 4.628-4.085h18.779C48.852 32.2 50.797 34 53.145 34c2.347 0 4.292-1.8 4.628-4.085h3.688c.604 0 1.14-.555 1.14-1.178V15.788c0-3.324-.871-6.024-2.615-7.963-1.61-1.8-3.89-2.77-6.372-2.77h-6.706V1.177C46.907.554 46.37 0 45.767 0H1.14C.537 0 0 .554 0 1.177v27.56c0 .623.537 1.178 1.14 1.178h18.94zm30.483-.922c0-1.385 1.073-2.493 2.414-2.493 1.341 0 2.414 1.108 2.414 2.493 0 1.385-1.073 2.493-2.414 2.493-1.341 0-2.414-1.108-2.414-2.493zM46.71 7.5h6.707c4.158 0 6.707 3.185 6.707 8.31v11.77h-2.75c-.67-1.87-2.415-3.254-4.427-3.254-2.079 0-3.823 1.385-4.426 3.254h-1.744V7.5h-.067zM22.633 28.993c0-1.385 1.073-2.493 2.414-2.493 1.342 0 2.415 1.108 2.415 2.493-.067 1.385-1.14 2.493-2.415 2.493-1.341 0-2.414-1.108-2.414-2.493zM44.688 2.5v25.137H30.134c-.134 0-.268 0-.402.069-.604-1.94-2.415-3.324-4.494-3.324-2.079 0-3.89 1.454-4.493 3.393a1.232 1.232 0 0 0-.537-.138h-17.8V2.5h42.28z"/><path id="b" d="M1.114 2.5H15.41V0H0v2.5h1.114z"/><path id="c" fill-rule="evenodd" d="M1.162 0H8.95c.615 0 1.162.587 1.162 1.247 0 .66-.547 1.247-1.162 1.247H1.16C.548 2.567 0 1.98 0 1.247 0 .587.547 0 1.162 0z"/><path id="d" fill-rule="evenodd" d="M1.142 2.5C.538 2.5 0 1.912 0 1.25S.538 0 1.142 0h9.273c.605 0 1.142.588 1.142 1.25S11.02 2.5 10.415 2.5H1.142z"/><path id="e" fill-rule="evenodd" d="M1.116 0h10.77c.59 0 1.116.588 1.116 1.25s-.526 1.25-1.117 1.25H1.117C.526 2.5 0 1.912 0 1.25S.525 0 1.116 0z"/><path id="f" fill-rule="evenodd" d="M4.607 9.59c2.545 0 4.608-2.147 4.608-4.795S7.152 0 4.607 0C2.063 0 0 2.147 0 4.795S2.063 9.59 4.607 9.59z"/><path id="g" fill-rule="evenodd" d="M2.513 5.23c1.388 0 2.513-1.17 2.513-2.615C5.026 1.171 3.901 0 2.513 0S0 1.171 0 2.615C0 4.06 1.125 5.231 2.513 5.231z"/></defs></svg>