<svg width="13" height="11" viewBox="0 0 13 11" xmlns="http://www.w3.org/2000/svg" xmlns:xlink="http://www.w3.org/1999/xlink"><title>Linkedin</title><desc>Created using Figma</desc><g transform="translate(-3643 714)"><path fill="#FFF" d="M3643-714h13v11h-13z"/><clipPath id="a" clip-rule="evenodd"><path d="M2888-1571h1024v983H2888v-983z" fill="#FFF"/></clipPath><g clip-path="url(#a)"><use xlink:href="#b" transform="translate(2888 -1625)" fill="#F1F2F7"/><use xlink:href="#c" transform="translate(3643 -714)" fill="#303030" opacity=".7"/></g></g><defs><path id="b" fill-rule="evenodd" d="M0 0h1024v1471H0V0z"/><path id="c" fill-rule="evenodd" d="M0 1.298C0 .559.612 0 1.548 0c.935 0 1.51.558 1.528 1.296 0 .723-.593 1.297-1.546 1.297h-.018C.595 2.593 0 2.022 0 1.298zm9.784 2.158c-1.451 0-2.36.732-2.529 1.244V3.528H4.41c.037.622 0 7.472 0 7.472h2.846V6.876c-.001-.197-.002-.388.062-.53.196-.45.616-.916 1.372-.916.989 0 1.438.691 1.438 1.703V11H13V6.845c0-2.314-1.415-3.39-3.216-3.39zm-9.456.072H2.86V11H.328V3.528z"/></defs></svg>