<svg width="138" height="16" viewBox="0 0 138 16" xmlns="http://www.w3.org/2000/svg" xmlns:xlink="http://www.w3.org/1999/xlink"><title>cargofy_logo_01</title><desc>Created using Figma</desc><g transform="translate(-3111 717)"><path fill="#FFF" d="M3111-717h138v16h-138z"/><clipPath id="a" clip-rule="evenodd"><path d="M2888-1571h1024v983H2888v-983z" fill="#FFF"/></clipPath><g clip-path="url(#a)"><use xlink:href="#b" transform="translate(2888 -1625)" fill="#F1F2F7"/><use xlink:href="#c" transform="translate(3111.34 -717)" opacity=".7"/></g></g><defs><path id="b" fill-rule="evenodd" d="M0 0h1024v1471H0V0z"/><path id="c" fill-rule="evenodd" d="M68.334 15.533c1.379 0 2.597-.46 3.655-1.381v1.273h3.362V7.27h-6.098v3.02h2.569c-.905 1.007-1.95 1.51-3.133 1.51a3.28 3.28 0 0 1-1.399-.29 3.123 3.123 0 0 1-1.232-1.02 3.696 3.696 0 0 1-.327-.541 4.295 4.295 0 0 1-.216-.522 5.051 5.051 0 0 1-.25-1.64c0-.589.083-1.132.25-1.628.167-.496.397-.924.69-1.284.291-.36.64-.64 1.043-.84.404-.202.85-.303 1.337-.303a3.44 3.44 0 0 1 1.859.55 3.486 3.486 0 0 1 1.315 1.456l3.029-2.394a5.349 5.349 0 0 0-1.024-1.392A6.726 6.726 0 0 0 70.652.227 7.999 7.999 0 0 0 68.731 0a7.576 7.576 0 0 0-5.409 2.211 7.484 7.484 0 0 0-1.608 2.416 7.687 7.687 0 0 0-.585 3.01c0 1.251.195 2.366.585 3.344.39.978.912 1.805 1.566 2.48a6.57 6.57 0 0 0 2.297 1.543 7.327 7.327 0 0 0 2.757.529zM.512 4.875A7.782 7.782 0 0 0 0 7.637c0 .978.18 1.941.543 2.89.362.95.874 1.798 1.535 2.546a7.677 7.677 0 0 0 2.36 1.802c.912.453 1.918.68 3.018.68.626 0 1.27-.08 1.931-.238a8.022 8.022 0 0 0 1.86-.69 6.435 6.435 0 0 0 1.545-1.122c.452-.446.79-.95 1.012-1.51l-3.32-2.05a2.598 2.598 0 0 1-.512.874c-.216.237-.46.431-.73.582a3.118 3.118 0 0 1-.846.324 3.958 3.958 0 0 1-.857.097 3.03 3.03 0 0 1-1.43-.334 3.29 3.29 0 0 1-1.076-.896 4.04 4.04 0 0 1-.668-1.294 5.18 5.18 0 0 1-.19-2.169 5.43 5.43 0 0 1 .159-.797c.132-.482.334-.914.605-1.295.272-.38.62-.69 1.044-.927.425-.238.93-.356 1.515-.356a4.032 4.032 0 0 1 .405.02c.151.014.305.036.461.066.3.057.588.158.867.302.278.144.532.338.762.582.23.245.414.554.554.928l3.111-2.287C13.143 2.36 12.36 1.55 11.308.938 10.259.328 9.016.022 7.582.022 6.384.022 5.32.244 4.386.69a7.62 7.62 0 0 0-2.381 1.748A7.536 7.536 0 0 0 .512 4.875zM28.932.108h-3.717l-5.159 15.317h4.156l.877-2.999h3.947l.898 2.999h4.136L28.932.108zm-.543 9.514l-1.316-4.747-1.378 4.747h2.694zM48.466.108h-6.808v15.317h4.072v-4.703h1.525l2.61 4.703h4.595l-3.133-5.63a5.04 5.04 0 0 0 1.567-1.889 5.61 5.61 0 0 0 .563-2.491c0-.647-.125-1.291-.376-1.931a5.671 5.671 0 0 0-1.033-1.704A5.218 5.218 0 0 0 50.47.572a4.386 4.386 0 0 0-2.005-.464zM45.73 7.054h2.57a.65.65 0 0 0 .107-.009l.031-.006a.671.671 0 0 0 .095-.028c.163-.063.318-.192.465-.388.216-.288.324-.69.324-1.208 0-.532-.125-.939-.376-1.22-.25-.28-.5-.42-.751-.42H45.73v3.28zm44.666 8.5c-1.128 0-2.152-.223-3.07-.669a7.606 7.606 0 0 1-2.36-1.758 8.004 8.004 0 0 1-1.525-2.492 7.939 7.939 0 0 1-.543-2.89c0-1.007.188-1.978.564-2.913a7.753 7.753 0 0 1 1.577-2.47A7.686 7.686 0 0 1 87.44.658c.926-.424 1.94-.636 3.039-.636 1.128 0 2.151.222 3.07.668a7.531 7.531 0 0 1 2.36 1.77 7.986 7.986 0 0 1 1.514 2.502 8.02 8.02 0 0 1 .533 2.869 7.652 7.652 0 0 1-.564 2.901 7.707 7.707 0 0 1-3.957 4.174c-.927.432-1.94.648-3.04.648zm-3.154-6.267a5.555 5.555 0 0 1-.01-2.977 3.94 3.94 0 0 1 .615-1.294c.279-.381.63-.687 1.055-.917.425-.23.93-.345 1.514-.345.571 0 1.069.111 1.493.334.425.223.78.518 1.066.885.285.366.497.79.637 1.272.139.482.208.982.208 1.5 0 .503-.066 1-.198 1.488a4.056 4.056 0 0 1-.606 1.306c-.271.38-.623.69-1.054.927-.254.14-.533.238-.839.295a3.75 3.75 0 0 1-.686.061c-.585 0-1.09-.115-1.514-.345a3.189 3.189 0 0 1-1.055-.906 3.976 3.976 0 0 1-.626-1.284zm18.803-9.18h10.171v3.668h-6.099v2.546h4.971v3.408h-4.971v5.696h-4.072V.108zm23.774 6.624L127.166.108h-4.406l5.033 10.204v5.113h4.051v-5.07L136.961.108h-4.427l-2.715 6.623z"/></defs></svg>