<svg width="323" height="23" viewBox="0 0 323 23" xmlns="http://www.w3.org/2000/svg" xmlns:xlink="http://www.w3.org/1999/xlink"><title>cargofy_logo_01</title><desc>Created using Figma</desc><use xlink:href="#a" transform="translate(121)"/><use xlink:href="#b" fill="url(#c)"/><defs><linearGradient id="c" x2="1" gradientUnits="userSpaceOnUse" gradientTransform="matrix(76.63 0 0 16.7856 0 11.5)"><stop offset="0" stop-color="#FFF"/><stop offset="1" stop-color="#FF6000"/></linearGradient><path id="a" fill-rule="evenodd" d="M100.784 22.968c2.033 0 3.83-.68 5.391-2.041v1.882h4.959V10.75h-8.994v4.466h3.788c-1.334 1.49-2.875 2.233-4.62 2.233-.76 0-1.448-.143-2.064-.43a4.607 4.607 0 0 1-1.586-1.212 5.193 5.193 0 0 1-.673-1.016 6.148 6.148 0 0 1-.359-.85c-.246-.724-.37-1.532-.37-2.425 0-.872.124-1.675.37-2.408a6.024 6.024 0 0 1 1.017-1.899 4.633 4.633 0 0 1 1.54-1.244 4.345 4.345 0 0 1 1.971-.446c.965 0 1.879.27 2.741.813a5.145 5.145 0 0 1 1.941 2.153l4.466-3.54a7.898 7.898 0 0 0-1.509-2.058 9.875 9.875 0 0 0-4.59-2.552A11.766 11.766 0 0 0 101.37 0c-1.582 0-3.055.292-4.42.877a11.176 11.176 0 0 0-3.558 2.393 11.064 11.064 0 0 0-2.372 3.573c-.575 1.371-.862 2.855-.862 4.45 0 1.85.287 3.498.862 4.944.575 1.446 1.345 2.67 2.31 3.669.965 1 2.095 1.76 3.389 2.28a10.78 10.78 0 0 0 4.065.782zM.754 7.21A11.53 11.53 0 0 0 0 11.293c0 1.446.267 2.87.8 4.274a12.195 12.195 0 0 0 2.265 3.764 11.322 11.322 0 0 0 3.48 2.664C7.89 22.665 9.374 23 10.996 23c.924 0 1.874-.117 2.85-.351a11.821 11.821 0 0 0 2.74-1.02 9.49 9.49 0 0 0 2.28-1.66 6.468 6.468 0 0 0 1.494-2.233l-4.898-3.03c-.08.222-.173.43-.279.621a3.522 3.522 0 0 1-.475.67 4.224 4.224 0 0 1-1.078.862c-.4.223-.817.383-1.248.479a5.822 5.822 0 0 1-1.263.143c-.78 0-1.483-.165-2.11-.494a4.861 4.861 0 0 1-1.586-1.324 5.98 5.98 0 0 1-.986-1.914 7.552 7.552 0 0 1-.338-2.265 8.005 8.005 0 0 1 .407-2.496 6.127 6.127 0 0 1 .283-.697c.143-.297.308-.578.496-.842.4-.564.913-1.021 1.54-1.372.626-.35 1.37-.526 2.233-.526.41 0 .837.042 1.278.127.442.085.868.234 1.278.447a3.946 3.946 0 0 1 .672.44l.042.034a4.5 4.5 0 0 1 .41.387c.34.362.612.819.817 1.372l4.59-3.382c-.76-1.488-1.915-2.684-3.466-3.588C15.13.484 13.296.032 11.181.032c-1.766 0-3.337.33-4.713.989-1.375.66-2.546 1.52-3.511 2.584A11.15 11.15 0 0 0 .755 7.209zM42.672.16h-5.483L29.58 22.81h6.13l1.293-4.434h5.822l1.324 4.434h6.1L42.67.159zm-.8 14.069L39.93 7.208l-2.033 7.018h3.973zM61.44.16v22.649h6.006v-6.955h2.249l3.85 6.955h6.776l-4.62-8.326a7.446 7.446 0 0 0 2.31-2.792 8.297 8.297 0 0 0 .832-3.684c0-.957-.185-1.909-.554-2.855a8.392 8.392 0 0 0-1.525-2.52A7.697 7.697 0 0 0 74.438.845 6.454 6.454 0 0 0 71.481.16H61.44zm6.006 10.271h3.789c.37 0 .713-.212 1.032-.638.318-.425.477-1.02.477-1.786 0-.787-.185-1.388-.554-1.802-.37-.415-.74-.622-1.11-.622h-3.634v4.848zM133.322 23c-1.664 0-3.173-.33-4.528-.989a11.216 11.216 0 0 1-3.481-2.6 11.845 11.845 0 0 1-2.248-3.684 11.764 11.764 0 0 1-.801-4.275c0-1.489.277-2.924.831-4.306.555-1.383 1.33-2.6 2.326-3.653a11.343 11.343 0 0 1 3.542-2.52c1.366-.627 2.86-.941 4.482-.941 1.663 0 3.172.33 4.528.989a11.107 11.107 0 0 1 3.48 2.616 11.818 11.818 0 0 1 2.234 3.7c.523 1.382.785 2.796.785 4.243 0 1.488-.277 2.918-.832 4.29a11.648 11.648 0 0 1-2.31 3.637 11.366 11.366 0 0 1-3.527 2.536c-1.365.638-2.859.957-4.481.957zm-4.651-9.267a7.94 7.94 0 0 1-.308-2.217 8.322 8.322 0 0 1 .292-2.185 5.825 5.825 0 0 1 1.061-2.111c.145-.179.301-.345.47-.498.279-.254.59-.474.933-.661.627-.34 1.371-.51 2.234-.51.841 0 1.575.164 2.202.494.626.33 1.15.766 1.571 1.308.223.287.416.599.578.934.144.297.265.613.361.948a7.94 7.94 0 0 1 .308 2.217c0 .745-.097 1.478-.292 2.201a6.005 6.005 0 0 1-.894 1.93 4.6 4.6 0 0 1-1.555 1.372c-.637.35-1.386.526-2.249.526-.862 0-1.607-.17-2.233-.51a5.016 5.016 0 0 1-.653-.423 4.632 4.632 0 0 1-.902-.917 5.872 5.872 0 0 1-.924-1.898zm27.732 9.076V.159h15v5.424h-8.994v3.764h7.331v5.04h-7.331v8.422h-6.006zm35.063-12.856L187.554.16h-6.499l7.423 15.088v7.56h5.976v-7.496L202 .16h-6.53l-4.004 9.793z"/><path id="b" fill-rule="evenodd" d="M5 0H0v23h5V0zm3 0h5v23H8V0zm13 0h-5v23h5V0zm4 0h5v23h-5V0zm13 0h-5v23h5V0zm3 0h5v23h-5V0zm13 0h-5v23h5V0zm4 0h5v23h-5V0zm13 0h-5v23h5V0zm3 0h5v23h-5V0zm8 0h23v23H82V0z"/></defs></svg>