<svg width="14" height="11" viewBox="0 0 14 11" xmlns="http://www.w3.org/2000/svg" xmlns:xlink="http://www.w3.org/1999/xlink"><title>Twitter</title><desc>Created using Figma</desc><g transform="translate(-3607 714)"><path fill="#FFF" d="M3607-714h14v11h-14z"/><clipPath id="a" clip-rule="evenodd"><path d="M2888-1571h1024v983H2888v-983z" fill="#FFF"/></clipPath><g clip-path="url(#a)"><use xlink:href="#b" transform="translate(2888 -1625)" fill="#F1F2F7"/><use xlink:href="#c" transform="translate(3607 -714)" fill="#303030" opacity=".7"/></g></g><defs><path id="b" fill-rule="evenodd" d="M0 0h1024v1471H0V0z"/><path id="c" fill-rule="evenodd" d="M13.614.204a5.872 5.872 0 0 1-1.825.672A2.911 2.911 0 0 0 9.692 0c-1.585 0-2.87 1.243-2.87 2.777 0 .218.024.429.073.632A8.248 8.248 0 0 1 .975.507a2.702 2.702 0 0 0-.39 1.398c0 .962.508 1.813 1.279 2.31A2.95 2.95 0 0 1 .562 3.87v.034c0 1.346.99 2.469 2.305 2.723-.24.065-.495.098-.757.098-.185 0-.365-.017-.54-.05.365 1.103 1.425 1.907 2.682 1.928a5.887 5.887 0 0 1-3.567 1.19c-.232 0-.46-.013-.685-.039A8.345 8.345 0 0 0 4.403 11c5.284 0 8.172-4.23 8.172-7.9 0-.121-.002-.242-.007-.36A5.706 5.706 0 0 0 14 1.301a5.866 5.866 0 0 1-1.65.437A2.802 2.802 0 0 0 13.615.204z"/></defs></svg>