<svg width="16" height="9" viewBox="0 0 16 9" xmlns="http://www.w3.org/2000/svg" xmlns:xlink="http://www.w3.org/1999/xlink"><title></title><desc>Created using Figma</desc><g transform="translate(-3676 712)"><path fill="#FFF" d="M3676-712h16v9h-16z"/><clipPath id="a" clip-rule="evenodd"><path d="M2888-1571h1024v983H2888v-983z" fill="#FFF"/></clipPath><g clip-path="url(#a)"><use xlink:href="#b" transform="translate(2888 -1625)" fill="#F1F2F7"/><use xlink:href="#c" transform="translate(3676 -712)" fill="#303030" opacity=".7"/></g></g><defs><path id="b" fill-rule="evenodd" d="M0 0h1024v1471H0V0z"/><path id="c" fill-rule="evenodd" d="M15.977.65c.128.35-.288 1.155-1.249 2.415-.133.175-.314.408-.541.698-.223.279-.375.476-.459.591-.083.115-.168.25-.254.407-.086.156-.12.27-.1.345.02.074.056.168.109.283.052.115.143.233.27.353.128.12.286.266.475.435.022.011.036.022.042.033.783.718 1.313 1.323 1.59 1.815a.863.863 0 0 1 .055.103c.02.041.039.114.058.218a.626.626 0 0 1-.004.279c-.022.082-.091.157-.208.226-.117.068-.28.102-.492.102l-2.132.033a.947.947 0 0 1-.467-.04 2.045 2.045 0 0 1-.433-.181l-.166-.099a3.884 3.884 0 0 1-.583-.526 14.618 14.618 0 0 1-.571-.636 2.744 2.744 0 0 0-.508-.477c-.18-.128-.338-.17-.471-.127a.549.549 0 0 0-.067.029 1.045 1.045 0 0 0-.32.361 1.67 1.67 0 0 0-.142.427c-.042.19-.06.401-.054.637 0 .082-.01.157-.03.226a.55.55 0 0 1-.062.152l-.033.04c-.1.105-.247.165-.442.181H7.83c-.394.022-.8-.023-1.216-.135a4.687 4.687 0 0 1-1.095-.435c-.314-.178-.6-.359-.858-.542a4.935 4.935 0 0 1-.587-.473l-.209-.197a5.434 5.434 0 0 1-.229-.246c-.097-.11-.296-.359-.595-.748-.3-.388-.595-.802-.883-1.24a25.06 25.06 0 0 1-1.02-1.733A26.943 26.943 0 0 1 .05.97.647.647 0 0 1 0 .75C0 .689.008.645.025.617l.033-.05C.142.465.3.413.533.413L2.816.395A.901.901 0 0 1 3.14.52l.041.024c.089.06.156.148.2.263a13 13 0 0 0 .383.85c.145.293.259.516.342.67l.133.238c.161.328.317.613.467.854.15.24.284.428.404.562.119.135.234.24.345.317.111.076.206.115.284.115a.63.63 0 0 0 .224-.041.142.142 0 0 0 .042-.042 1.315 1.315 0 0 0 .212-.567c.026-.158.052-.38.08-.664a6.294 6.294 0 0 0 0-1.027 3.766 3.766 0 0 0-.075-.6 1.556 1.556 0 0 0-.117-.377l-.05-.099C5.917.809 5.681.691 5.348.642 5.276.63 5.29.565 5.39.445a.985.985 0 0 1 .316-.247c.295-.142.958-.208 1.991-.197.456.006.83.041 1.125.107a.967.967 0 0 1 .279.11.442.442 0 0 1 .17.198c.04.085.069.172.088.263.02.09.03.215.03.373 0 .16-.004.31-.01.452l-.02.58c-.008.243-.012.469-.012.677 0 .06-.003.175-.009.345a3.456 3.456 0 0 0 .026.727.894.894 0 0 0 .095.32.55.55 0 0 0 .187.201l.142.033c.05.01.122-.02.217-.09.094-.072.2-.166.316-.284.117-.117.261-.3.433-.55.173-.25.361-.543.567-.883.333-.57.63-1.185.891-1.848a.561.561 0 0 1 .084-.144.37.37 0 0 1 .091-.086l.034-.024.041-.021a.68.68 0 0 1 .275-.029l2.4-.016c.216-.028.393-.02.532.02.14.041.225.087.258.136l.05.082z"/></defs></svg>